<svg width="44" height="44" viewBox="0 0 44 44" fill="none" xmlns="http://www.w3.org/2000/svg">
<path d="M21.9998 41.7083C11.1282 41.7083 2.2915 32.8716 2.2915 22C2.2915 11.1283 11.1282 2.29163 21.9998 2.29163C32.8715 2.29163 41.7082 11.1283 41.7082 22C41.7082 32.8716 32.8715 41.7083 21.9998 41.7083ZM21.9998 5.04163C12.6498 5.04163 5.0415 12.65 5.0415 22C5.0415 31.35 12.6498 38.9583 21.9998 38.9583C31.3498 38.9583 38.9582 31.35 38.9582 22C38.9582 12.65 31.3498 5.04163 21.9998 5.04163Z" fill="#040404"/>
<path d="M24.3099 29.8467C23.9615 29.8467 23.6132 29.7184 23.3382 29.4434L16.8665 22.9717C16.3349 22.44 16.3349 21.56 16.8665 21.0284L23.3382 14.5567C23.8699 14.025 24.7499 14.025 25.2815 14.5567C25.8132 15.0884 25.8132 15.9684 25.2815 16.5L19.7815 22L25.2815 27.5C25.8132 28.0317 25.8132 28.9117 25.2815 29.4434C25.0249 29.7184 24.6765 29.8467 24.3099 29.8467Z" fill="#040404"/>
</svg>
