<svg width="68" height="68" viewBox="0 0 68 68" fill="none" xmlns="http://www.w3.org/2000/svg">
<path d="M62.3332 53.8333V62.3333H5.6665V53.8333C5.6665 52.275 6.9415 51 8.49984 51H59.4998C61.0582 51 62.3332 52.275 62.3332 53.8333Z" fill="#292D32" stroke="#292D32" stroke-width="1.5" stroke-miterlimit="10" stroke-linecap="round" stroke-linejoin="round"/>
<path d="M19.8332 31.1666H14.1665V51H19.8332V31.1666Z" fill="#292D32"/>
<path d="M31.1667 31.1666H25.5V51H31.1667V31.1666Z" fill="#292D32"/>
<path d="M42.5002 31.1666H36.8335V51H42.5002V31.1666Z" fill="#292D32"/>
<path d="M53.8332 31.1666H48.1665V51H53.8332V31.1666Z" fill="#292D32"/>
<path d="M65.1668 64.4584H2.8335C1.67183 64.4584 0.708496 63.495 0.708496 62.3334C0.708496 61.1717 1.67183 60.2084 2.8335 60.2084H65.1668C66.3285 60.2084 67.2918 61.1717 67.2918 62.3334C67.2918 63.495 66.3285 64.4584 65.1668 64.4584Z" fill="#292D32"/>
<path d="M60.5482 16.2916L35.0482 6.09163C34.4815 5.86496 33.5182 5.86496 32.9515 6.09163L7.4515 16.2916C6.45984 16.6883 5.6665 17.85 5.6665 18.9266V28.3333C5.6665 29.8916 6.9415 31.1666 8.49984 31.1666H59.4998C61.0582 31.1666 62.3332 29.8916 62.3332 28.3333V18.9266C62.3332 17.85 61.5398 16.6883 60.5482 16.2916ZM33.9998 24.0833C31.6482 24.0833 29.7498 22.185 29.7498 19.8333C29.7498 17.4816 31.6482 15.5833 33.9998 15.5833C36.3515 15.5833 38.2498 17.4816 38.2498 19.8333C38.2498 22.185 36.3515 24.0833 33.9998 24.0833Z" fill="#292D32"/>
</svg>
