<svg width="68" height="68" viewBox="0 0 68 68" fill="none" xmlns="http://www.w3.org/2000/svg">
<path d="M43.1232 18.5583H16.3765C15.5832 18.5583 14.8465 18.5867 14.1665 18.615C7.4515 19.0117 5.6665 21.4767 5.6665 29.1267V30.77C5.6665 32.3283 6.9415 33.6033 8.49984 33.6033H50.9998C52.5582 33.6033 53.8332 32.3283 53.8332 30.77V29.1267C53.8332 20.6833 51.6798 18.5583 43.1232 18.5583Z" fill="#292D32"/>
<path d="M8.49984 37.8533C6.9415 37.8533 5.6665 39.1283 5.6665 40.6866V48.9316C5.6665 57.3749 7.81984 59.4999 16.3765 59.4999H43.1232C51.5382 59.4999 53.7482 57.4599 53.8332 49.3849V40.6866C53.8332 39.1283 52.5582 37.8533 50.9998 37.8533H8.49984ZM19.7198 52.5866H14.8748C13.7132 52.5866 12.7498 51.6233 12.7498 50.4616C12.7498 49.2999 13.7132 48.3366 14.8748 48.3366H19.7482C20.9098 48.3366 21.8732 49.2999 21.8732 50.4616C21.8732 51.6233 20.9098 52.5866 19.7198 52.5866ZM35.5582 52.5866H25.8115C24.6498 52.5866 23.6865 51.6233 23.6865 50.4616C23.6865 49.2999 24.6498 48.3366 25.8115 48.3366H35.5582C36.7198 48.3366 37.6832 49.2999 37.6832 50.4616C37.6832 51.6233 36.7482 52.5866 35.5582 52.5866Z" fill="#292D32"/>
<path d="M62.3336 37.7683V22.9216C62.3336 14.0533 57.2619 10.2 49.6119 10.2H24.3102C22.1569 10.2 20.2302 10.5116 18.5302 11.1633C17.1986 11.645 16.0086 12.3533 15.0452 13.2883C14.5352 13.77 14.9319 14.5633 15.6686 14.5633H46.4669C52.8419 14.5633 57.9986 19.72 57.9986 26.095V46.4099C57.9986 47.1183 58.7636 47.5149 59.2736 47.0049C61.2286 44.9366 62.3336 41.9049 62.3336 37.7683Z" fill="#292D32"/>
</svg>
