<svg width="19" height="18" viewBox="0 0 19 18" fill="none" xmlns="http://www.w3.org/2000/svg">
<path d="M9.82129 0C4.85087 0 0.821289 4.02958 0.821289 9C0.821289 13.2497 3.76775 16.8092 7.72879 17.7528C7.52387 17.704 7.32067 17.6493 7.12129 17.587V15.525C7.12129 15.525 6.78379 15.6375 6.33379 15.6375C5.07483 15.6375 4.55179 14.5142 4.42129 13.95C4.34202 13.6063 4.13502 13.2805 3.91279 13.0815C3.64729 12.8447 3.52302 12.844 3.52129 12.763C3.51783 12.5931 3.74906 12.6 3.85879 12.6C4.42129 12.6 4.84775 13.1985 5.04575 13.508C5.53625 14.2719 6.06275 14.4 6.33379 14.4C6.67129 14.4 6.96275 14.3495 7.16352 14.2525C7.25629 13.599 7.54706 13.0168 8.02129 12.6C5.91079 12.178 4.42129 10.9675 4.42129 9C4.42129 7.98646 4.82802 7.05496 5.50579 6.30277C5.43656 6.1065 5.32129 5.70946 5.32129 5.0625C5.32129 4.635 5.35106 4.11023 5.54629 3.6C5.54629 3.6 6.82983 3.609 8.04033 4.75546C8.59902 4.59277 9.19683 4.5 9.82129 4.5C10.4458 4.5 11.0436 4.59277 11.6023 4.75546C12.8128 3.609 14.0963 3.6 14.0963 3.6C14.2926 4.11023 14.3213 4.635 14.3213 5.0625C14.3213 5.76 14.2285 6.16673 14.1718 6.34223C14.8288 7.0875 15.2213 8.00446 15.2213 9C15.2213 10.9675 13.7318 12.178 11.6213 12.6C12.1848 13.095 12.5213 13.816 12.5213 14.625V17.587C12.3219 17.6497 12.1191 17.704 11.9138 17.7528C15.8748 16.8092 18.8213 13.2497 18.8213 9C18.8213 4.02958 14.7917 0 9.82129 0ZM10.4489 17.9758C10.2415 17.9903 10.0324 18 9.82129 18C10.0324 18 10.2412 17.99 10.4489 17.9758ZM9.82129 18C9.61014 18 9.40106 17.9903 9.19371 17.9758C9.4014 17.99 9.61014 18 9.82129 18ZM9.0556 17.9654C8.63433 17.9297 8.22102 17.8653 7.81844 17.7736C8.22137 17.865 8.63433 17.9297 9.0556 17.9654Z" fill="white"/>
</svg>
