<svg width="130" height="25" viewBox="0 0 130 25" fill="none" xmlns="http://www.w3.org/2000/svg">
<path d="M0 24.6583V1.33257H8.75424C10.4372 1.33257 11.871 1.67046 13.0555 2.34624C14.2401 3.01443 15.143 3.94457 15.7641 5.13667C16.3925 6.32118 16.7067 7.68793 16.7067 9.2369C16.7067 10.7859 16.3889 12.1526 15.7533 13.3371C15.1177 14.5216 14.1968 15.4442 12.9905 16.1048C11.7915 16.7654 10.3397 17.0957 8.63507 17.0957H3.05532V13.1435H7.87665C8.77953 13.1435 9.52349 12.9803 10.1086 12.6538C10.7008 12.3197 11.1414 11.8603 11.4304 11.2756C11.7265 10.6834 11.8746 10.0038 11.8746 9.2369C11.8746 8.46241 11.7265 7.78664 11.4304 7.20957C11.1414 6.6249 10.7008 6.17312 10.1086 5.85421C9.51627 5.52772 8.76508 5.36447 7.85498 5.36447H4.69132V24.6583H0Z" fill="#050505"/>
<path d="M19.6673 24.6583V7.16401H24.1419V10.2164H24.3152C24.6186 9.1306 25.1278 8.31055 25.8429 7.75627C26.558 7.19438 27.3814 6.91344 28.3132 6.91344C28.5443 6.91344 28.7935 6.92863 29.0607 6.959C29.328 6.98937 29.5627 7.03113 29.765 7.08428V11.3895C29.5483 11.3212 29.2485 11.2604 28.8657 11.2073C28.4829 11.1541 28.1326 11.1276 27.8148 11.1276C27.1358 11.1276 26.5291 11.2832 25.9946 11.5945C25.4673 11.8983 25.0484 12.3235 24.7378 12.8702C24.4344 13.4169 24.2827 14.0471 24.2827 14.7608V24.6583H19.6673Z" fill="#050505"/>
<path d="M38.8957 25C37.2128 25 35.7573 24.6241 34.5294 23.8724C33.3087 23.1131 32.3661 22.0577 31.7016 20.7062C31.0371 19.347 30.7049 17.7715 30.7049 15.9795C30.7049 14.1724 31.0371 12.593 31.7016 11.2415C32.3661 9.88231 33.3087 8.82688 34.5294 8.07517C35.7573 7.31587 37.2128 6.93622 38.8957 6.93622C40.5787 6.93622 42.0305 7.31587 43.2512 8.07517C44.4791 8.82688 45.4253 9.88231 46.0898 11.2415C46.7543 12.593 47.0866 14.1724 47.0866 15.9795C47.0866 17.7715 46.7543 19.347 46.0898 20.7062C45.4253 22.0577 44.4791 23.1131 43.2512 23.8724C42.0305 24.6241 40.5787 25 38.8957 25ZM38.9174 21.2415C39.683 21.2415 40.3223 21.0137 40.8351 20.5581C41.3479 20.0949 41.7343 19.4647 41.9944 18.6674C42.2616 17.8702 42.3953 16.9628 42.3953 15.9453C42.3953 14.9279 42.2616 14.0205 41.9944 13.2232C41.7343 12.426 41.3479 11.7957 40.8351 11.3326C40.3223 10.8694 39.683 10.6378 38.9174 10.6378C38.1445 10.6378 37.4945 10.8694 36.9672 11.3326C36.4471 11.7957 36.0535 12.426 35.7862 13.2232C35.5262 14.0205 35.3962 14.9279 35.3962 15.9453C35.3962 16.9628 35.5262 17.8702 35.7862 18.6674C36.0535 19.4647 36.4471 20.0949 36.9672 20.5581C37.4945 21.0137 38.1445 21.2415 38.9174 21.2415Z" fill="#050505"/>
<path d="M50.1744 24.6583V1.33257H54.7899V10.1025H54.9307C55.133 9.63174 55.4255 9.15338 55.8083 8.66743C56.1984 8.17388 56.704 7.76386 57.3251 7.43736C57.9535 7.10327 58.7336 6.93622 59.6654 6.93622C60.8788 6.93622 61.9984 7.27031 63.0241 7.9385C64.0497 8.59909 64.8695 9.59757 65.4835 10.9339C66.0974 12.2627 66.4044 13.9294 66.4044 15.9339C66.4044 17.8853 66.1047 19.533 65.5052 20.877C64.9129 22.2134 64.1039 23.227 63.0782 23.918C62.0598 24.6014 60.9186 24.9431 59.6545 24.9431C58.7589 24.9431 57.9969 24.7874 57.3685 24.4761C56.7473 24.1648 56.2381 23.7737 55.8408 23.303C55.4436 22.8246 55.1402 22.3424 54.9307 21.8565H54.7249V24.6583H50.1744ZM54.6924 15.9112C54.6924 16.9514 54.8296 17.8588 55.1041 18.6333C55.3785 19.4077 55.7758 20.0114 56.2959 20.4442C56.8159 20.8694 57.4479 21.082 58.1919 21.082C58.9431 21.082 59.5787 20.8656 60.0988 20.4328C60.6188 19.9924 61.0125 19.385 61.2797 18.6105C61.5542 17.8284 61.6914 16.9286 61.6914 15.9112C61.6914 14.9013 61.5578 14.0129 61.2906 13.246C61.0233 12.4791 60.6297 11.8793 60.1096 11.4465C59.5895 11.0137 58.9503 10.7973 58.1919 10.7973C57.4407 10.7973 56.8051 11.0061 56.285 11.4237C55.7722 11.8413 55.3785 12.4336 55.1041 13.2005C54.8296 13.9674 54.6924 14.8709 54.6924 15.9112Z" fill="black"/>
<path d="M69.4841 24.6583V7.16401H74.0996V24.6583H69.4841ZM71.8027 4.90888C71.1165 4.90888 70.5278 4.6697 70.0367 4.19134C69.5527 3.70539 69.3108 3.12453 69.3108 2.44875C69.3108 1.78056 69.5527 1.20729 70.0367 0.728931C70.5278 0.242977 71.1165 0 71.8027 0C72.4889 0 73.0739 0.242977 73.5579 0.728931C74.049 1.20729 74.2946 1.78056 74.2946 2.44875C74.2946 3.12453 74.049 3.70539 73.5579 4.19134C73.0739 4.6697 72.4889 4.90888 71.8027 4.90888Z" fill="black"/>
<path d="M85.316 25C83.633 25 82.1776 24.6241 80.9497 23.8724C79.729 23.1131 78.7864 22.0577 78.1219 20.7062C77.4574 19.347 77.1251 17.7715 77.1251 15.9795C77.1251 14.1724 77.4574 12.593 78.1219 11.2415C78.7864 9.88231 79.729 8.82688 80.9497 8.07517C82.1776 7.31587 83.633 6.93622 85.316 6.93622C86.9989 6.93622 88.4507 7.31587 89.6714 8.07517C90.8993 8.82688 91.8455 9.88231 92.51 11.2415C93.1746 12.593 93.5068 14.1724 93.5068 15.9795C93.5068 17.7715 93.1746 19.347 92.51 20.7062C91.8455 22.0577 90.8993 23.1131 89.6714 23.8724C88.4507 24.6241 86.9989 25 85.316 25ZM85.3376 21.2415C86.1033 21.2415 86.7425 21.0137 87.2553 20.5581C87.7682 20.0949 88.1546 19.4647 88.4146 18.6674C88.6819 17.8702 88.8155 16.9628 88.8155 15.9453C88.8155 14.9279 88.6819 14.0205 88.4146 13.2232C88.1546 12.426 87.7682 11.7957 87.2553 11.3326C86.7425 10.8694 86.1033 10.6378 85.3376 10.6378C84.5648 10.6378 83.9147 10.8694 83.3874 11.3326C82.8674 11.7957 82.4737 12.426 82.2065 13.2232C81.9464 14.0205 81.8164 14.9279 81.8164 15.9453C81.8164 16.9628 81.9464 17.8702 82.2065 18.6674C82.4737 19.4647 82.8674 20.0949 83.3874 20.5581C83.9147 21.0137 84.5648 21.2415 85.3376 21.2415Z" fill="black"/>
<path d="M110.354 12.1526L106.129 12.426C106.057 12.0463 105.901 11.7046 105.663 11.4009C105.425 11.0896 105.111 10.8428 104.72 10.6606C104.338 10.4708 103.879 10.3759 103.345 10.3759C102.629 10.3759 102.026 10.5353 101.535 10.8542C101.044 11.1655 100.798 11.5831 100.798 12.1071C100.798 12.5247 100.957 12.8778 101.275 13.1663C101.593 13.4548 102.138 13.6864 102.911 13.861L105.923 14.4989C107.541 14.8481 108.747 15.41 109.542 16.1845C110.336 16.959 110.734 17.9765 110.734 19.2369C110.734 20.3834 110.412 21.3895 109.769 22.2551C109.134 23.1207 108.26 23.7965 107.147 24.2825C106.042 24.7608 104.767 25 103.323 25C101.12 25 99.3646 24.5178 98.0573 23.5535C96.7571 22.5816 95.9951 21.2604 95.7712 19.59L100.311 19.3394C100.448 20.0456 100.78 20.5847 101.308 20.9567C101.835 21.3212 102.51 21.5034 103.334 21.5034C104.143 21.5034 104.793 21.3402 105.284 21.0137C105.782 20.6796 106.035 20.2506 106.042 19.7267C106.035 19.2863 105.858 18.9256 105.511 18.6446C105.165 18.3561 104.63 18.1359 103.908 17.9841L101.026 17.3804C99.4008 17.0387 98.1909 16.4465 97.3964 15.6036C96.6091 14.7608 96.2154 13.6864 96.2154 12.3804C96.2154 11.2566 96.5044 10.2885 97.0822 9.47608C97.6673 8.66363 98.4871 8.03721 99.5416 7.59681C100.603 7.15642 101.846 6.93622 103.269 6.93622C105.371 6.93622 107.025 7.40319 108.231 8.33713C109.444 9.27107 110.152 10.5429 110.354 12.1526Z" fill="black"/>
<path d="M125.07 9.71526L121.885 1.33257H123.651L125.634 6.86788L127.606 1.33257H129.372L126.197 9.71526H125.07ZM121.267 9.71526V1.33257H123.272V9.71526H121.267ZM127.985 9.71526V1.33257H130V9.71526H127.985ZM115.438 9.71526V2.0615H117.454V9.71526H115.438ZM113.012 3.07517V1.33257H119.881V3.07517H113.012Z" fill="#050505"/>
</svg>
