<svg width="156" height="29" viewBox="0 0 156 29" fill="none" xmlns="http://www.w3.org/2000/svg">
<path d="M0 28.6036V1.54579H10.5051C12.5246 1.54579 14.2452 1.93774 15.6666 2.72164C17.0881 3.49674 18.1716 4.5757 18.917 5.95854C19.671 7.33257 20.0481 8.918 20.0481 10.7148C20.0481 12.5116 19.6667 14.097 18.904 15.4711C18.1412 16.8451 17.0361 17.9153 15.5886 18.6815C14.1498 19.4478 12.4076 19.831 10.3621 19.831H3.66638V15.2465H9.45198C10.5354 15.2465 11.4282 15.0571 12.1303 14.6784C12.841 14.2908 13.3697 13.7579 13.7164 13.0797C14.0718 12.3927 14.2495 11.6044 14.2495 10.7148C14.2495 9.8164 14.0718 9.0325 13.7164 8.3631C13.3697 7.68489 12.841 7.16082 12.1303 6.79089C11.4195 6.41215 10.5181 6.22278 9.42598 6.22278H5.62959V28.6036H0Z" fill="#E3E3E3"/>
<path d="M23.6007 28.6036V8.31025H28.9703V11.851H29.1783C29.5423 10.5915 30.1534 9.64024 31.0115 8.99727C31.8696 8.34548 32.8577 8.01959 33.9758 8.01959C34.2532 8.01959 34.5522 8.03721 34.8729 8.07244C35.1936 8.10767 35.4753 8.15611 35.718 8.21777V13.2118C35.4579 13.1326 35.0982 13.0621 34.6389 13.0005C34.1795 12.9388 33.7591 12.908 33.3777 12.908C32.563 12.908 31.8349 13.0885 31.1935 13.4497C30.5608 13.802 30.058 14.2952 29.6853 14.9294C29.3213 15.5636 29.1393 16.2946 29.1393 17.1226V28.6036H23.6007Z" fill="#E3E3E3"/>
<path d="M46.6749 29C44.6553 29 42.9088 28.564 41.4353 27.692C39.9705 26.8112 38.8394 25.5869 38.042 24.0191C37.2445 22.4425 36.8458 20.6149 36.8458 18.5362C36.8458 16.4399 37.2445 14.6079 38.042 13.0401C38.8394 11.4635 39.9705 10.2392 41.4353 9.3672C42.9088 8.48641 44.6553 8.04601 46.6749 8.04601C48.6944 8.04601 50.4366 8.48641 51.9014 9.3672C53.3749 10.2392 54.5103 11.4635 55.3078 13.0401C56.1052 14.6079 56.5039 16.4399 56.5039 18.5362C56.5039 20.6149 56.1052 22.4425 55.3078 24.0191C54.5103 25.5869 53.3749 26.8112 51.9014 27.692C50.4366 28.564 48.6944 29 46.6749 29ZM46.7009 24.6401C47.6196 24.6401 48.3867 24.3759 49.0021 23.8474C49.6175 23.3101 50.0812 22.579 50.3932 21.6542C50.714 20.7294 50.8743 19.6768 50.8743 18.4966C50.8743 17.3163 50.714 16.2638 50.3932 15.339C50.0812 14.4141 49.6175 13.6831 49.0021 13.1458C48.3867 12.6085 47.6196 12.3399 46.7009 12.3399C45.7734 12.3399 44.9934 12.6085 44.3606 13.1458C43.7366 13.6831 43.2642 14.4141 42.9435 15.339C42.6314 16.2638 42.4754 17.3163 42.4754 18.4966C42.4754 19.6768 42.6314 20.7294 42.9435 21.6542C43.2642 22.579 43.7366 23.3101 44.3606 23.8474C44.9934 24.3759 45.7734 24.6401 46.7009 24.6401Z" fill="#E3E3E3"/>
<path d="M60.2093 28.6036V1.54579H65.7478V11.7189H65.9169C66.1596 11.1728 66.5106 10.6179 66.97 10.0542C67.438 9.4817 68.0447 9.00607 68.7902 8.62734C69.5442 8.23979 70.4803 8.04601 71.5985 8.04601C73.0546 8.04601 74.3981 8.43356 75.6289 9.20866C76.8597 9.97494 77.8434 11.1332 78.5802 12.6834C79.3169 14.2248 79.6853 16.1581 79.6853 18.4834C79.6853 20.747 79.3256 22.6583 78.6062 24.2173C77.8955 25.7675 76.9247 26.9434 75.6939 27.7449C74.4718 28.5376 73.1023 28.9339 71.5855 28.9339C70.5107 28.9339 69.5963 28.7534 68.8422 28.3923C68.0968 28.0311 67.4857 27.5775 67.009 27.0314C66.5323 26.4765 66.1682 25.9172 65.9169 25.3535H65.6698V28.6036H60.2093ZM65.6308 18.4569C65.6308 19.6636 65.7955 20.7162 66.1249 21.6146C66.4543 22.513 66.931 23.2132 67.555 23.7153C68.1791 24.2085 68.9375 24.4551 69.8303 24.4551C70.7317 24.4551 71.4945 24.2041 72.1185 23.7021C72.7426 23.1912 73.215 22.4866 73.5357 21.5882C73.865 20.6809 74.0297 19.6372 74.0297 18.4569C74.0297 17.2855 73.8694 16.255 73.5487 15.3654C73.228 14.4758 72.7556 13.78 72.1315 13.2779C71.5075 12.7759 70.7404 12.5248 69.8303 12.5248C68.9288 12.5248 68.1661 12.767 67.542 13.2515C66.9266 13.7359 66.4543 14.4229 66.1249 15.3125C65.7955 16.2021 65.6308 17.2503 65.6308 18.4569Z" fill="white"/>
<path d="M83.3809 28.6036V8.31025H88.9195V28.6036H83.3809ZM86.1632 5.69431C85.3398 5.69431 84.6334 5.41686 84.044 4.86196C83.4633 4.29825 83.1729 3.62445 83.1729 2.84055C83.1729 2.06545 83.4633 1.40046 84.044 0.845559C84.6334 0.281853 85.3398 0 86.1632 0C86.9866 0 87.6887 0.281853 88.2694 0.845559C88.8588 1.40046 89.1535 2.06545 89.1535 2.84055C89.1535 3.62445 88.8588 4.29825 88.2694 4.86196C87.6887 5.41686 86.9866 5.69431 86.1632 5.69431Z" fill="white"/>
<path d="M102.379 29C100.36 29 98.6131 28.564 97.1396 27.692C95.6748 26.8112 94.5437 25.5869 93.7463 24.0191C92.9488 22.4425 92.5501 20.6149 92.5501 18.5362C92.5501 16.4399 92.9488 14.6079 93.7463 13.0401C94.5437 11.4635 95.6748 10.2392 97.1396 9.3672C98.6131 8.48641 100.36 8.04601 102.379 8.04601C104.399 8.04601 106.141 8.48641 107.606 9.3672C109.079 10.2392 110.215 11.4635 111.012 13.0401C111.809 14.6079 112.208 16.4399 112.208 18.5362C112.208 20.6149 111.809 22.4425 111.012 24.0191C110.215 25.5869 109.079 26.8112 107.606 27.692C106.141 28.564 104.399 29 102.379 29ZM102.405 24.6401C103.324 24.6401 104.091 24.3759 104.706 23.8474C105.322 23.3101 105.786 22.579 106.098 21.6542C106.418 20.7294 106.579 19.6768 106.579 18.4966C106.579 17.3163 106.418 16.2638 106.098 15.339C105.786 14.4141 105.322 13.6831 104.706 13.1458C104.091 12.6085 103.324 12.3399 102.405 12.3399C101.478 12.3399 100.698 12.6085 100.065 13.1458C99.4409 13.6831 98.9685 14.4141 98.6478 15.339C98.3357 16.2638 98.1797 17.3163 98.1797 18.4966C98.1797 19.6768 98.3357 20.7294 98.6478 21.6542C98.9685 22.579 99.4409 23.3101 100.065 23.8474C100.698 24.3759 101.478 24.6401 102.405 24.6401Z" fill="white"/>
<path d="M132.425 14.097L127.355 14.4141C127.268 13.9737 127.082 13.5774 126.796 13.2251C126.51 12.8639 126.133 12.5777 125.665 12.3663C125.205 12.1461 124.655 12.036 124.013 12.036C123.155 12.036 122.432 12.221 121.842 12.5909C121.253 12.952 120.958 13.4364 120.958 14.0442C120.958 14.5286 121.149 14.9382 121.53 15.2729C121.912 15.6076 122.566 15.8762 123.493 16.0788L127.108 16.8187C129.049 17.2238 130.497 17.8756 131.45 18.774C132.404 19.6724 132.88 20.8527 132.88 22.3148C132.88 23.6448 132.495 24.8118 131.723 25.8159C130.96 26.82 129.912 27.6039 128.577 28.1677C127.251 28.7226 125.721 29 123.987 29C121.344 29 119.238 28.4407 117.669 27.3221C116.109 26.1947 115.194 24.6621 114.925 22.7244L120.373 22.4337C120.538 23.2528 120.936 23.8782 121.569 24.3098C122.202 24.7326 123.012 24.944 124 24.944C124.971 24.944 125.751 24.7546 126.341 24.3759C126.939 23.9883 127.242 23.4907 127.251 22.8829C127.242 22.3721 127.03 21.9537 126.614 21.6278C126.198 21.2931 125.556 21.0377 124.689 20.8615L121.231 20.1613C119.281 19.7649 117.829 19.0779 116.876 18.1002C115.931 17.1226 115.459 15.8762 115.459 14.3613C115.459 13.0577 115.805 11.9347 116.499 10.9923C117.201 10.0498 118.184 9.32316 119.45 8.8123C120.724 8.30144 122.215 8.04601 123.922 8.04601C126.445 8.04601 128.43 8.5877 129.877 9.67107C131.333 10.7544 132.183 12.2298 132.425 14.097Z" fill="white"/>
<path d="M150.084 11.2697L146.262 1.54579H148.381L150.76 7.96674L153.127 1.54579H155.246L151.437 11.2697H150.084ZM145.521 11.2697V1.54579H147.926V11.2697H145.521ZM153.582 11.2697V1.54579H156V11.2697H153.582ZM138.526 11.2697V2.39134H140.944V11.2697H138.526ZM135.614 3.5672V1.54579H143.857V3.5672H135.614Z" fill="#E3E3E3"/>
</svg>
