<svg width="52" height="34" viewBox="0 0 52 34" fill="none" xmlns="http://www.w3.org/2000/svg">
<rect x="-0.2" y="0.2" width="51.6" height="33.6" rx="8.8" transform="matrix(-1 0 0 1 51.6 0)" fill="white"/>
<rect x="-0.2" y="0.2" width="51.6" height="33.6" rx="8.8" transform="matrix(-1 0 0 1 51.6 0)" stroke="#E6E6E6" stroke-width="0.4"/>
<path d="M31.5591 8.08997H20.4358V25.9082H31.5591V8.08997Z" fill="#FF5F00"/>
<path d="M30.4134 17.0007C30.4148 15.285 30.0182 13.5914 29.2537 12.0482C28.4892 10.505 27.3768 9.15251 26.0007 8.09318C27.7051 6.77947 29.752 5.96255 31.9073 5.73578C34.0627 5.50902 36.2397 5.88157 38.1894 6.81084C40.1391 7.74011 41.7829 9.18862 42.933 10.9908C44.083 12.793 44.6929 14.8762 44.6929 17.0022C44.6929 19.1283 44.083 21.2115 42.933 23.0137C41.7829 24.8159 40.1391 26.2644 38.1894 27.1937C36.2397 28.1229 34.0627 28.4955 31.9073 28.2687C29.752 28.0419 27.7051 27.225 26.0007 25.9113C27.3773 24.8517 28.4899 23.4987 29.2544 21.9549C30.019 20.4111 30.4153 18.7169 30.4134 17.0006V17.0007Z" fill="#EB001B"/>
<path d="M8.41093 24.0228V23.6577H8.25046V23.5822H8.63232V23.6577H8.48149V24.0228L8.41093 24.0228ZM7.66957 24.0228V23.5822H7.78512L7.91988 23.8969L8.05471 23.5822H8.1702V24.0228H8.08678V23.6892L7.96159 23.9756H7.87496L7.74978 23.6892V24.0228H7.66957Z" fill="#F79E1B"/>
<path d="M7.30709 17.0007C7.30714 19.1269 7.91715 21.2102 9.0674 23.0125C10.2177 24.8147 11.8617 26.2632 13.8117 27.1923C15.7616 28.1215 17.9388 28.4938 20.0943 28.2667C22.2498 28.0396 24.2967 27.2223 26.001 25.9081C24.6254 24.8479 23.5133 23.4951 22.7486 21.9517C21.9839 20.4084 21.5866 18.715 21.5866 16.9991C21.5866 15.2832 21.9839 13.5897 22.7486 12.0464C23.5133 10.5031 24.6254 9.15027 26.001 8.09C24.2967 6.77587 22.2498 5.95854 20.0943 5.73145C17.9388 5.50435 15.7616 5.87666 13.8117 6.80581C11.8617 7.73495 10.2176 9.18344 9.06738 10.9857C7.91713 12.788 7.30713 14.8713 7.30709 16.9975V17.0007Z" fill="#F79E1B"/>
</svg>
