<svg width="18" height="18" viewBox="0 0 18 18" fill="none" xmlns="http://www.w3.org/2000/svg">
<path d="M15.8571 0H2.14286C0.96 0 0 0.96 0 2.14286V15.8571C0 17.04 0.96 18 2.14286 18H15.8571C17.04 18 18 17.04 18 15.8571V2.14286C18 0.96 17.04 0 15.8571 0ZM14.1429 6.42857H13.2857C12.3686 6.42857 12 6.64286 12 7.28571V8.57143H14.1429L13.7143 10.7143H12V17.1429H9.85714V10.7143H8.14286V8.57143H9.85714V7.28571C9.85714 5.57143 10.7143 4.28571 12.4286 4.28571C13.6714 4.28571 14.1429 4.71429 14.1429 4.71429V6.42857Z" fill="white"/>
</svg>
