<svg width="21" height="14" viewBox="0 0 21 14" fill="none" xmlns="http://www.w3.org/2000/svg">
<path d="M20.263 2.40625C20.0781 1.44409 19.1972 0.743408 18.1749 0.524658C16.6451 0.21875 13.8139 0 10.7506 0C7.68915 0 4.81259 0.21875 3.28096 0.524658C2.26048 0.743408 1.37775 1.39966 1.19287 2.40625C1.00617 3.5 0.821289 5.03125 0.821289 7C0.821289 8.96875 1.00617 10.5 1.23818 11.5938C1.42488 12.5559 2.30579 13.2566 3.32627 13.4753C4.95035 13.7812 7.73447 14 10.7977 14C13.861 14 16.6451 13.7812 18.2692 13.4753C19.2897 13.2566 20.1706 12.6003 20.3573 11.5938C20.5422 10.5 20.7742 8.92432 20.8213 7C20.727 5.03125 20.495 3.5 20.263 2.40625ZM8.24561 10.0625V3.9375L13.9063 7L8.24561 10.0625Z" fill="white"/>
</svg>
